# AST/ASF file generated using VICON BodyLanguage
# -----------------------------------------------
:version 1.10
:name VICON
:units
  mass 1.0
  length 0.45
  angle deg
:documentation
   .ast/.asf automatically generated from VICON data using
   VICON BodyBuilder and BodyLanguage model FoxedUp or BRILLIANT.MOD
:root
   order TX TY TZ RX RY RZ
   axis XYZ
   position 0 0 0  
   orientation 0 0 0 
:bonedata
  begin
     id 1 
     name lhipjoint
     direction 0.567725 -0.736092 0.368589 
     length 2.42353 
     axis 0 0 0  XYZ
  end
  begin
     id 2 
     name lfemur
     direction 0.34202 -0.939693 0  
     length 7.24894  
     axis 0 0 20  XYZ
    dof rx ry rz
    limits (-160.0 20.0)
           (-70.0 70.0)
           (-60.0 70.0)
  end
  begin
     id 3 
     name ltibia
     direction 0.34202 -0.939693 0   
     length 7.6997   
     axis 0 0 20   XYZ
    dof rx
    limits (-10.0 170.0)
  end
  begin
     id 4 
     name lfoot
     direction 0.100767 -0.276854 0.955614   
     length 2.37556   
     axis -90 7.62852e-016 20   XYZ
    dof rx rz
    limits (-45.0 90.0)
           (-70.0 20.0)
  end
  begin
     id 5 
     name ltoes
     direction 1.53592e-011 -4.21894e-011 1   
     length 1.18363   
     axis -90 7.62852e-016 20   XYZ
    dof rx
    limits (-90.0 20.0)
  end
  begin
     id 6 
     name rhipjoint
     direction -0.556459 -0.742938 0.372017   
     length 2.4012  
     axis 0 0 0  XYZ 
  end
  begin
     id 7 
     name rfemur
     direction -0.34202 -0.939693 0   
     length 7.5119   
     axis 0 0 -20   XYZ
    dof rx ry rz
    limits (-160.0 20.0)
           (-70.0 70.0)
           (-70.0 60.0)
  end
  begin
     id 8 
     name rtibia
     direction -0.34202 -0.939693 0   
     length 7.50155   
     axis 0 0 -20   XYZ
    dof rx
    limits (-10.0 170.0)
 end
 begin
     id 9 
     name rfoot
     direction -0.118427 -0.325376 0.938139   
     length 2.32487  
     axis -90 -7.62852e-016 -20   XYZ
    dof rx rz
    limits (-45.0 90.0)
           (-20.0 70.0)
  end
  begin
     id 10 
     name rtoes
     direction -1.53525e-011 -4.21868e-011 1   
     length 1.15233   
     axis -90 -7.62852e-016 -20   XYZ
    dof rx
    limits (-90.0 20.0)
  end
  begin
     id 11 
     name lowerback
     direction 0.0287568 0.999577 -0.00434502   
     length 2.15243   
     axis 0 0 0   XYZ
    dof rx ry rz
    limits (-20.0 45.0)
           (-30.0 30.0)
           (-30.0 30.0)
  end
  begin
     id 12 
     name upperback
     direction 0.0294009 0.99956 0.00404628   
     length 2.15427   
     axis 0 0 0   XYZ
    dof rx ry rz
    limits (-20.0 45.0)
           (-30.0 30.0)
           (-30.0 30.0)
  end
  begin
     id 13 
     name thorax
     direction 0.0151014 0.999868 0.0059419   
     length 2.14898   
     axis 0 0 0   XYZ
    dof rx ry rz
    limits (-20.0 45.0)
           (-30.0 30.0)
           (-30.0 30.0)
  end
  begin
     id 14 
     name lowerneck
     direction -0.0249197 0.989906 0.139515   
     length 1.6861   
     axis 0 0 0   XYZ
    dof rx ry rz
    limits (-20.0 45.0)
           (-30.0 30.0)
           (-30.0 30.0)
  end
  begin
     id 15 
     name upperneck
     direction 0.0438463 0.988795 -0.142693   
     length 1.71276   
     axis 0 0 0   XYZ
    dof rx ry rz
    limits (-20.0 45.0)
           (-30.0 30.0)
           (-30.0 30.0)
  end
  begin
     id 16
     name head
     direction 0.0148499 0.997845 -0.0639186  
     length 1.7209  
     axis 0 0 0   XYZ
    dof rx ry rz
    limits (-20.0 45.0)
           (-30.0 30.0)
           (-30.0 30.0)
  end
  begin
     id 17 
     name lclavicle
     direction 0.940298 0.323464 -0.105876  
     length 3.9048  
     axis 0 0 0   XYZ
    dof ry rz
    limits (-20.0 10.0)
           (0.0 20.0)
  end
  begin
     id 18 
     name lhumerus
     direction 1 -4.48954e-011 -4.9675e-028   
     length 4.6851   
     axis 180 -30 -90   XYZ
    dof rx ry rz
    limits (-60.0 90.0)
           (-90.0 90.0)
           (-90.0 90.0)
  end
  begin
     id 19
     name lradius
     direction 1 -4.48992e-011 -1.03359e-026   
     length 3.39626   
     axis 180 -30 -90   XYZ
    dof rx
    limits (-10.0 170.0)
  end
  begin
     id 20
     name lwrist
     direction 1 -4.48906e-011 -1.67336e-026   
     length 1.69813   
     axis 9.90442e-015 90 90   XYZ
    dof ry
    limits (-180.0 0.0)
 end
  begin
     id 21 
     name lhand
     direction 1 -4.49006e-011 -3.34673e-026   
     length 0.486078   
     axis 2.1355e-014 90 90   XYZ
    dof rx rz
    limits (-90.0 90.0)
           (-45.0 45.0)
  end
  begin
     id 22 
     name lfingers
     direction 1 -4.48992e-011 -6.69345e-026   
     length 0.391889   
     axis 4.27099e-014 90 90   XYZ
    dof rx
    limits (0.0 90.0)
  end
  begin
     id 23
     name lthumb
     direction 0.707107 -6.34926e-011 0.707107   
     length 0.562676   
     axis -90 45 2.85299e-015   XYZ
    dof rx rz
    limits (-45.0 45.0)
           (-45.0 45.0)
  end
  begin
     id 24 
     name rclavicle
     direction -0.882459 0.414895 -0.221648   
     length 3.44646  
     axis 0 0 0   XYZ 
    dof ry rz
    limits (-10.0 20.0)
           (-20.0 0.0)
  end
  begin
     id 25 
     name rhumerus
     direction -1 -4.48962e-011 -2.37984e-027  
     length 5.55576   
     axis 180 30 90   XYZ
    dof rx ry rz
    limits (-90.0 60.0)
           (-90.0 90.0)
           (-90.0 90.0)
  end
  begin
     id 26 
     name rradius
     direction -1 -4.48982e-011 -6.86791e-027   
     length 3.32774   
     axis 180 30 90   XYZ
    dof rx
    limits (-10.0 170.0)
  end
  begin
     id 27 
     name rwrist
     direction -1 -4.48961e-011 -1.67336e-026   
     length 1.66387   
     axis 9.90442e-015 -90 -90   XYZ
    dof ry
    limits (-180.0 0.0)
  end
  begin
     id 28
     name rhand
     direction -1 -4.4897e-011 -3.34673e-026   
     length 0.507628   
     axis 2.1355e-014 -90 -90   XYZ
    dof rx rz
    limits (-90.0 90.0)
           (-45.0 45.0)
  end
  begin
     id 29
     name rfingers
     direction -1 -4.48854e-011 -6.69345e-026   
     length 0.409263   
     axis 4.27099e-014 -90 -90   XYZ
    dof rx
    limits (0.0 90.0)
  end
  begin
     id 30
     name rthumb
     direction -0.707107 -6.34913e-011 0.707107   
     length 0.587622   
     axis -90 -45 -2.85299e-015   XYZ
    dof rx rz
    limits (-45.0 45.0)
           (-45.0 45.0)
  end
:hierarchy
  begin
    root lhipjoint rhipjoint lowerback
    lhipjoint lfemur
    lfemur ltibia
    ltibia lfoot
    lfoot ltoes
    rhipjoint rfemur
    rfemur rtibia
    rtibia rfoot
    rfoot rtoes
    lowerback upperback
    upperback thorax
    thorax lowerneck lclavicle rclavicle
    lowerneck upperneck
    upperneck head
    lclavicle lhumerus
    lhumerus lradius
    lradius lwrist
    lwrist lhand lthumb
    lhand lfingers
    rclavicle rhumerus
    rhumerus rradius
    rradius rwrist
    rwrist rhand rthumb
    rhand rfingers
  end

#!OML:ASF E:\motion texture\Top Level 1\Subject 1\Session 1\male.ASF
:FULLY-SPECIFIED
:DEGREES
48
root 23.8151 17.8094 5.39179 73.8435 -80.731 -67.7158
lowerback -2.60671 1.69536 6.714
upperback 0.0785412 1.93095 3.0663
thorax 1.66459 0.97537 -0.519753
lowerneck -16.0784 -1.8855 -6.10812
upperneck 14.3489 -1.32985 1.03634
head 7.09322 -0.894686 1.1873
rclavicle -1.31695e-014 1.98785e-016
rhumerus -35.2652 -26.725 -69.1154
rradius 17.9302
rwrist 21.822
rhand -7.59402 -26.4395
rfingers 7.12502
rthumb 18.2994 -55.5988
lclavicle -1.31695e-014 1.98785e-016
lhumerus -48.8729 36.519 50.6154
lradius 21.8576
lwrist -32.0019
lhand -16.7689 28.3494
lfingers 7.12502
lthumb 9.45834 58.1172
rfemur -0.958624 3.94803 35.2114
rtibia 12.6402
rfoot -11.9344 -4.54013
rtoes 17.7847
lfemur -35.2071 3.59514 -6.46781
ltibia 34.4548
lfoot -5.72517 1.20535
ltoes -12.5001
49
root 23.7007 17.7974 5.39364 75.5383 -80.798 -69.2316
lowerback -2.78546 1.77177 6.77188
upperback 0.0374126 2.01995 2.96426
thorax 1.73338 1.02241 -0.647748
lowerneck -16.0372 -1.83017 -6.1263
upperneck 14.4771 -1.23456 0.920644
head 7.12436 -0.864102 1.16296
rclavicle -3.81294e-014 -8.15017e-015
rhumerus -34.071 -25.74 -70.1079
rradius 18.8622
rwrist 19.7611
rhand -7.83223 -26.9562
rfingers 7.12502
rthumb 18.0703 -56.1368
lclavicle -3.81294e-014 -8.15017e-015
lhumerus -48.1522 36.3131 51.8409
lradius 22.3543
lwrist -31.2729
lhand -16.621 28.5941
lfingers 7.12502
lthumb 9.60106 58.3553
rfemur -0.753813 3.94309 35.2242
rtibia 12.7053
rfoot -12.1835 -4.29705
rtoes 17.4315
lfemur -34.7941 3.04325 -6.27561
ltibia 31.3363
lfoot -5.46143 2.0154
ltoes -12.3061
50
root 23.5849 17.7848 5.39643 77.3908 -80.8697 -70.9045
lowerback -2.97468 1.848 6.82513
upperback -0.00277759 2.10769 2.8611
thorax 1.80927 1.06898 -0.773592
lowerneck -15.9792 -1.77403 -6.14799
upperneck 14.6166 -1.13927 0.808973
head 7.1565 -0.833849 1.14056
rclavicle 2.59662e-015 -3.81667e-014
rhumerus -32.9031 -24.643 -71.1035
rradius 19.951
rwrist 17.5994
rhand -7.9573 -27.4878
rfingers 7.12502
rthumb 17.9499 -56.6795
lclavicle 2.59662e-015 -3.81667e-014
lhumerus -47.3326 35.8961 53.2847
lradius 22.8802
lwrist -30.3951
lhand -16.4633 28.7349
lfingers 7.12502
lthumb 9.75322 58.4891
rfemur -0.555282 3.94351 35.2186
rtibia 12.794
rfoot -12.4379 -4.02713
rtoes 17.0596
lfemur -34.3116 2.40309 -6.03998
ltibia 28.1694
lfoot -5.11979 2.9126
ltoes -12.2147
51
root 23.4679 17.7716 5.40033 79.4075 -80.9392 -72.7414
lowerback -3.17074 1.9228 6.88176
upperback -0.0408638 2.19242 2.75809
thorax 1.89157 1.11425 -0.900577
lowerneck -15.9237 -1.71832 -6.16469
upperneck 14.7758 -1.0434 0.685424
head 7.19561 -0.804816 1.1135
rclavicle -5.45415e-015 -2.13694e-014
rhumerus -31.7766 -23.4755 -72.07
rradius 21.1972
rwrist 15.3693
rhand -8.02014 -27.985
rfingers 7.12502
rthumb 17.8895 -57.1822
lclavicle -5.45415e-015 -2.13694e-014
lhumerus -46.4535 35.3396 54.8571
lradius 23.4084
lwrist -29.467
lhand -16.2968 28.734
lfingers 7.12502
lthumb 9.91379 58.4805
rfemur -0.359537 3.95356 35.2015
rtibia 12.8972
rfoot -12.6897 -3.73687
rtoes 16.674
lfemur -33.7785 1.67329 -5.75498
ltibia 25.0045
lfoot -4.73017 3.90569
ltoes -12.1552
52
root 23.3494 17.7577 5.40526 81.5842 -81.0063 -74.7397
lowerback -3.36378 1.99588 6.93947
upperback -0.0810215 2.27502 2.65574
thorax 1.97034 1.15831 -1.02728
lowerneck -15.8732 -1.6628 -6.18479
upperneck 14.9607 -0.945214 0.554619
head 7.24405 -0.776425 1.08483
rclavicle 1.45982e-014 -2.23136e-014
rhumerus -30.7102 -22.2827 -72.9742
rradius 22.6031
rwrist 13.0992
rhand -7.96137 -28.5216
rfingers 7.12502
rthumb 17.946 -57.7136
lclavicle 1.45982e-014 -2.23136e-014
lhumerus -45.5261 34.6073 56.5604
lradius 23.9496
lwrist -28.4529
lhand -16.1067 28.6002
lfingers 7.12502
lthumb 10.0973 58.338
rfemur -0.172409 3.95586 35.1664
rtibia 13.0298
rfoot -12.9444 -3.41119
rtoes 16.2782
lfemur -33.2158 0.877603 -5.43031
ltibia 21.9058
lfoot -4.33941 4.96847
ltoes -12.099
53
root 23.2292 17.743 5.41081 83.8306 -81.0616 -76.8116
lowerback -3.55494 2.06311 6.99938
upperback -0.125575 2.34996 2.55365
thorax 2.04345 1.19832 -1.15519
lowerneck -15.8171 -1.6063 -6.20024
upperneck 15.1703 -0.845325 0.414215
head 7.29977 -0.748828 1.05244
rclavicle 3.35635e-014 6.86553e-014
rhumerus -29.7174 -21.122 -73.793
rradius 24.1519
rwrist 10.8238
rhand -7.78546 -28.9849
rfingers 7.12502
rthumb 18.1153 -58.1613
lclavicle 3.35635e-014 6.86553e-014
lhumerus -44.5777 33.713 58.3455
lradius 24.5001
lwrist -27.3854
lhand -15.8688 28.3423
lfingers 7.12502
lthumb 10.3267 58.0688
rfemur 0.0177781 3.95995 35.1255
rtibia 13.1788
rfoot -13.1981 -3.0756
rtoes 15.873
lfemur -32.6516 0.048122 -5.07796
ltibia 18.9538
lfoot -4.02294 6.05767
ltoes -12.0089
54
root 23.1077 17.7274 5.4174 86.1464 -81.1073 -78.9554
lowerback -3.74521 2.1273 7.06519
upperback -0.168272 2.42039 2.4511
thorax 2.11831 1.23619 -1.28672
lowerneck -15.7684 -1.5524 -6.22329
upperneck 15.4003 -0.746069 0.272515
head 7.36378 -0.722993 1.02072
rclavicle 1.00767e-014 2.54693e-015
rhumerus -28.7805 -20.0298 -74.5218
rradius 25.8349
rwrist 8.52904
rhand -7.50136 -29.3381
rfingers 7.12502
rthumb 18.3886 -58.4889
lclavicle 1.00767e-014 2.54693e-015
lhumerus -43.6048 32.6482 60.2186
lradius 25.0754
lwrist -26.2543
lhand -15.5789 27.995
lfingers 7.12502
lthumb 10.6064 57.7073
rfemur 0.199506 3.95107 35.0692
rtibia 13.3597
rfoot -13.4532 -2.7128
rtoes 15.4658
lfemur -32.1257 -0.754114 -4.7298
ltibia 16.255
lfoot -3.87476 7.11376
ltoes -11.8769
55
root 22.985 17.7113 5.42468 88.4797 -81.1378 -81.1251
lowerback -3.93341 2.18509 7.13622
upperback -0.206516 2.48176 2.3498
thorax 2.19648 1.26977 -1.42009
lowerneck -15.719 -1.49615 -6.24369
upperneck 15.646 -0.642274 0.121349
head 7.43295 -0.696619 0.985906
rclavicle -1.48064e-014 1.1281e-014
rhumerus -27.8885 -19.0325 -75.1656
rradius 27.6407
rwrist 6.21568
rhand -7.0954 -29.5631
rfingers 7.12502
rthumb 18.7791 -58.6766
lclavicle -1.48064e-014 1.1281e-014
lhumerus -42.6348 31.4549 62.1254
lradius 25.6727
lwrist -25.1079
lhand -15.2423 27.5483
lfingers 7.12502
lthumb 10.9311 57.2438
rfemur 0.381429 3.94674 35.01
rtibia 13.5701
rfoot -13.7113 -2.34673
rtoes 15.045
lfemur -31.6638 -1.4368 -4.42279
ltibia 13.9025
lfoot -3.94449 8.03274
ltoes -11.7863
56
root 22.8617 17.6944 5.43273 90.7584 -81.154 -83.2442
lowerback -4.11321 2.23288 7.21048
upperback -0.249467 2.53045 2.24987
thorax 2.26443 1.29667 -1.55491
lowerneck -15.6493 -1.43571 -6.25773
upperneck 15.8996 -0.533061 -0.044049
head 7.50129 -0.669435 0.945967
rclavicle 5.77718e-015 5.73991e-014
rhumerus -27.0453 -18.1446 -75.7272
rradius 29.5566
rwrist 3.87957
rhand -6.59172 -29.6425
rfingers 7.12502
rthumb 19.2634 -58.7084
lclavicle 5.77718e-015 5.73991e-014
lhumerus -41.6912 30.1101 64.0604
lradius 26.3188
lwrist -23.9306
lhand -14.8665 27.0789
lfingers 7.12502
lthumb 11.2935 56.7549
rfemur 0.55186 3.94402 34.9468
rtibia 13.8178
rfoot -13.9704 -1.98252
rtoes 14.6084
lfemur -31.3055 -1.93547 -4.19534
ltibia 11.9908
lfoot -4.23119 8.71985
ltoes -11.818
57
root 22.7381 17.6772 5.44145 92.8824 -81.1548 -85.216
lowerback -4.27624 2.27041 7.28992
upperback -0.289413 2.56649 2.15063
thorax 2.32548 1.31721 -1.69321
lowerneck -15.5944 -1.3774 -6.26121
upperneck 16.1702 -0.42477 -0.224298
head 7.57816 -0.644459 0.899177
rclavicle 9.05713e-015 4.07509e-015
rhumerus -26.2281 -17.4063 -76.2122
rradius 31.5708
rwrist 1.54984
rhand -5.98558 -29.5713
rfingers 7.12502
rthumb 19.8462 -58.578
lclavicle 9.05713e-015 4.07509e-015
lhumerus -40.7644 28.6726 65.9869
lradius 26.9928
lwrist -22.7865
lhand -14.447 26.5445
lfingers 7.12502
lthumb 11.6981 56.1979
rfemur 0.713347 3.9435 34.8852
rtibia 14.1
rfoot -14.2314 -1.63555
rtoes 14.1333
lfemur -31.0738 -2.21038 -4.07493
ltibia 10.5966
lfoot -4.65953 9.10085
ltoes -12.0143
58
root 22.615 17.6597 5.45109 94.9205 -81.1442 -87.1086
lowerback -4.41863 2.29515 7.37663
upperback -0.329051 2.58673 2.05615
thorax 2.37419 1.32955 -1.83253
lowerneck -15.5335 -1.31378 -6.26864
upperneck 16.4419 -0.305666 -0.41945
head 7.65451 -0.616722 0.84919
rclavicle 1.02001e-014 2.34566e-014
rhumerus -25.4286 -16.7937 -76.6346
rradius 33.6747
rwrist -0.757949
rhand -5.323 -29.3462
rfingers 7.12502
rthumb 20.483 -58.2858
lclavicle 1.02001e-014 2.34566e-014
lhumerus -39.8906 27.1599 67.8832
lradius 27.7132
lwrist -21.6628
lhand -13.9924 25.9356
lfingers 7.12502
lthumb 12.1364 55.5636
rfemur 0.852557 3.94119 34.8188
rtibia 14.4324
rfoot -14.4928 -1.2915
rtoes 13.5988
lfemur -30.9798 -2.23859 -4.07773
ltibia 9.76076
lfoot -5.10369 9.15751
ltoes -12.3175
